<mxfile host="app.diagrams.net" modified="2024-01-09T20:58:08.437Z" agent="Mozilla/5.0 (X11; Ubuntu; Linux x86_64; rv:121.0) Gecko/20100101 Firefox/121.0" etag="U6TKefow4jivGPqoLg8l" version="22.1.17" type="github">
  <diagram name="Page-1" id="90a13364-a465-7bf4-72fc-28e22215d7a0">
    <mxGraphModel dx="2074" dy="1126" grid="1" gridSize="10" guides="1" tooltips="1" connect="1" arrows="1" fold="1" page="1" pageScale="1.5" pageWidth="1169" pageHeight="826" background="none" math="0" shadow="0">
      <root>
        <mxCell id="0" style=";html=1;" />
        <mxCell id="1" style=";html=1;" parent="0" />
        <mxCell id="3a17f1ce550125da-1" value="Home LAN" style="whiteSpace=wrap;html=1;shadow=1;fontSize=20;fillColor=#f5f5f5;strokeColor=#666666;strokeWidth=2;dashed=1;" parent="1" vertex="1">
          <mxGeometry x="802" y="300" width="150" height="60" as="geometry" />
        </mxCell>
        <mxCell id="3a17f1ce550125da-13" style="edgeStyle=elbowEdgeStyle;rounded=0;html=1;startArrow=none;startFill=0;jettySize=auto;orthogonalLoop=1;fontSize=18;elbow=vertical;" parent="1" source="3a17f1ce550125da-2" target="3a17f1ce550125da-4" edge="1">
          <mxGeometry relative="1" as="geometry" />
        </mxCell>
        <mxCell id="3a17f1ce550125da-14" style="edgeStyle=elbowEdgeStyle;rounded=0;html=1;startArrow=none;startFill=0;jettySize=auto;orthogonalLoop=1;fontSize=18;elbow=vertical;" parent="1" source="3a17f1ce550125da-2" target="3a17f1ce550125da-5" edge="1">
          <mxGeometry relative="1" as="geometry" />
        </mxCell>
        <mxCell id="3a17f1ce550125da-2" value="" style="whiteSpace=wrap;html=1;shadow=1;fontSize=18;fillColor=#f5f5f5;strokeColor=#666666;" parent="1" vertex="1">
          <mxGeometry x="791.75" y="410" width="170" height="320" as="geometry" />
        </mxCell>
        <mxCell id="3a17f1ce550125da-4" value="Web server" style="whiteSpace=wrap;html=1;shadow=1;fontSize=18;fillColor=#f5f5f5;strokeColor=#666666;" parent="1" vertex="1">
          <mxGeometry x="817" y="480" width="120" height="60" as="geometry" />
        </mxCell>
        <mxCell id="3a17f1ce550125da-5" value="Python script" style="whiteSpace=wrap;html=1;shadow=1;fontSize=18;fillColor=#f5f5f5;strokeColor=#666666;" parent="1" vertex="1">
          <mxGeometry x="816.75" y="620" width="120" height="60" as="geometry" />
        </mxCell>
        <mxCell id="3a17f1ce550125da-20" style="edgeStyle=elbowEdgeStyle;rounded=0;html=1;startArrow=none;startFill=0;jettySize=auto;orthogonalLoop=1;fontSize=18;elbow=vertical;" parent="1" source="3a17f1ce550125da-8" target="3a17f1ce550125da-4" edge="1">
          <mxGeometry relative="1" as="geometry">
            <Array as="points">
              <mxPoint x="757" y="514" />
            </Array>
          </mxGeometry>
        </mxCell>
        <mxCell id="3a17f1ce550125da-8" value="M5Paper" style="whiteSpace=wrap;html=1;shadow=1;fontSize=18;fillColor=#f5f5f5;strokeColor=#666666;" parent="1" vertex="1">
          <mxGeometry x="597" y="444" width="120" height="150" as="geometry" />
        </mxCell>
        <mxCell id="3a17f1ce550125da-11" value="Router" style="whiteSpace=wrap;html=1;shadow=1;fontSize=18;fillColor=#f5f5f5;strokeColor=#666666;" parent="1" vertex="1">
          <mxGeometry x="1050" y="489" width="120" height="60" as="geometry" />
        </mxCell>
        <mxCell id="3a17f1ce550125da-22" style="edgeStyle=elbowEdgeStyle;rounded=0;html=1;startArrow=none;startFill=0;jettySize=auto;orthogonalLoop=1;fontSize=18;entryX=0.5;entryY=1;entryDx=0;entryDy=0;fillColor=#008a00;strokeColor=#005700;" parent="1" target="3a17f1ce550125da-4" edge="1">
          <mxGeometry relative="1" as="geometry">
            <mxPoint x="876.25" y="620" as="sourcePoint" />
            <mxPoint x="876.25" y="576" as="targetPoint" />
            <Array as="points">
              <mxPoint x="876.25" y="600" />
              <mxPoint x="856.25" y="600" />
            </Array>
          </mxGeometry>
        </mxCell>
        <mxCell id="uIkob23udub3OUiVdY99-2" value="&lt;font style=&quot;font-size: 18px;&quot;&gt;Synology&lt;/font&gt;" style="text;html=1;strokeColor=none;fillColor=none;align=center;verticalAlign=middle;whiteSpace=wrap;rounded=0;" vertex="1" parent="1">
          <mxGeometry x="847" y="430" width="60" height="30" as="geometry" />
        </mxCell>
        <mxCell id="uIkob23udub3OUiVdY99-3" value="" style="endArrow=none;html=1;rounded=0;strokeWidth=4;" edge="1" parent="1">
          <mxGeometry width="50" height="50" relative="1" as="geometry">
            <mxPoint x="1109.5" y="460" as="sourcePoint" />
            <mxPoint x="1109.5" y="300" as="targetPoint" />
          </mxGeometry>
        </mxCell>
        <mxCell id="uIkob23udub3OUiVdY99-4" value="" style="endArrow=none;html=1;rounded=0;strokeWidth=4;" edge="1" parent="1">
          <mxGeometry width="50" height="50" relative="1" as="geometry">
            <mxPoint x="1110" y="900" as="sourcePoint" />
            <mxPoint x="1109.5" y="570" as="targetPoint" />
          </mxGeometry>
        </mxCell>
        <mxCell id="uIkob23udub3OUiVdY99-5" value="Internet" style="whiteSpace=wrap;html=1;shadow=1;fontSize=20;fillColor=#f5f5f5;strokeColor=#666666;strokeWidth=2;dashed=1;" vertex="1" parent="1">
          <mxGeometry x="1290" y="300" width="150" height="60" as="geometry" />
        </mxCell>
        <mxCell id="uIkob23udub3OUiVdY99-6" value="netatmo server" style="whiteSpace=wrap;html=1;shadow=1;fontSize=18;fillColor=#f5f5f5;strokeColor=#666666;" vertex="1" parent="1">
          <mxGeometry x="1310" y="435" width="120" height="150" as="geometry" />
        </mxCell>
        <mxCell id="uIkob23udub3OUiVdY99-7" value="netatmo weather station" style="whiteSpace=wrap;html=1;shadow=1;fontSize=18;fillColor=#f5f5f5;strokeColor=#666666;" vertex="1" parent="1">
          <mxGeometry x="817" y="780" width="120" height="80" as="geometry" />
        </mxCell>
        <mxCell id="uIkob23udub3OUiVdY99-8" value="" style="endArrow=classic;html=1;rounded=0;entryX=0;entryY=0.75;entryDx=0;entryDy=0;exitX=1;exitY=0.5;exitDx=0;exitDy=0;strokeColor=#006EAF;fillColor=#1ba1e2;" edge="1" parent="1" source="uIkob23udub3OUiVdY99-7" target="3a17f1ce550125da-11">
          <mxGeometry width="50" height="50" relative="1" as="geometry">
            <mxPoint x="850" y="600" as="sourcePoint" />
            <mxPoint x="900" y="550" as="targetPoint" />
            <Array as="points">
              <mxPoint x="1020" y="820" />
              <mxPoint x="1020" y="534" />
            </Array>
          </mxGeometry>
        </mxCell>
        <mxCell id="uIkob23udub3OUiVdY99-10" value="" style="endArrow=classic;html=1;rounded=0;entryX=0;entryY=0.713;entryDx=0;entryDy=0;entryPerimeter=0;strokeColor=#006EAF;fillColor=#1ba1e2;" edge="1" parent="1" target="uIkob23udub3OUiVdY99-6">
          <mxGeometry width="50" height="50" relative="1" as="geometry">
            <mxPoint x="1170" y="542" as="sourcePoint" />
            <mxPoint x="1260" y="494" as="targetPoint" />
          </mxGeometry>
        </mxCell>
        <mxCell id="uIkob23udub3OUiVdY99-11" value="" style="endArrow=classic;html=1;rounded=0;exitX=1;exitY=0.5;exitDx=0;exitDy=0;entryX=0.008;entryY=0.56;entryDx=0;entryDy=0;entryPerimeter=0;fillColor=#60a917;strokeColor=#2D7600;" edge="1" parent="1" source="3a17f1ce550125da-11" target="uIkob23udub3OUiVdY99-6">
          <mxGeometry width="50" height="50" relative="1" as="geometry">
            <mxPoint x="1277" y="400" as="sourcePoint" />
            <mxPoint x="1140" y="401.98" as="targetPoint" />
          </mxGeometry>
        </mxCell>
        <mxCell id="uIkob23udub3OUiVdY99-12" value="" style="endArrow=classic;html=1;rounded=0;entryX=0;entryY=0.5;entryDx=0;entryDy=0;exitX=1;exitY=0.5;exitDx=0;exitDy=0;strokeColor=#005700;fillColor=#008a00;" edge="1" parent="1" target="3a17f1ce550125da-11">
          <mxGeometry width="50" height="50" relative="1" as="geometry">
            <mxPoint x="937" y="646" as="sourcePoint" />
            <mxPoint x="1050" y="360" as="targetPoint" />
            <Array as="points">
              <mxPoint x="990" y="646" />
              <mxPoint x="990" y="519" />
            </Array>
          </mxGeometry>
        </mxCell>
      </root>
    </mxGraphModel>
  </diagram>
</mxfile>
